# xmcd CD database file
#
# Track frame offsets:
#	150
#	12583
#	28137
#	42025
#	59873
#	71689
#	88456
#	101584
#	115918
#	130998
#	145694
#	159181
#
# Disc length: 2300 seconds
#
# Revision: 0
# Processed by: cddbd v1.5.1PL0 Copyright (c) Steve Scherf et al.
# Submitted via: CDex 1.50beta9
#
DISCID=ac08fa0c
DTITLE=466 Country Harmony - Gone Gone Gone
DYEAR=2004
DGENRE=Country
TTITLE0=Gone Gone Gone
TTITLE1=Home Away From Home
TTITLE2=You're The Best Friend That I Ever Hard
TTITLE3=Medley - Black Velvet Band - The Boys Of Killybegs - My Grendfather's Clock - The Hills Of donegal The Apron and The Ferryman
TTITLE4=Hillbilly Rock HillBilly Roll
TTITLE5=Roosslere Harbour
TTITLE6=Dresming Of You
TTITLE7=Remember Me
TTITLE8=Together Again
TTITLE9=Will Ye Go Lessle Go
TTITLE10=Achill Island
TTITLE11=I Never Got Over You
EXTD=YEAR: 2004
EXTT0=
EXTT1=
EXTT2=
EXTT3=
EXTT4=
EXTT5=
EXTT6=
EXTT7=
EXTT8=
EXTT9=
EXTT10=
EXTT11=
PLAYORDER=
